<svg width="24" height="24" viewBox="0 0 24 24" fill="none" xmlns="http://www.w3.org/2000/svg">
<g id="mingcute:bulb-line">
<g id="Group">
<path id="Vector" d="M13 20C13.2652 20 13.5196 20.1054 13.7071 20.2929C13.8946 20.4804 14 20.7348 14 21C14 21.2652 13.8946 21.5196 13.7071 21.7071C13.5196 21.8946 13.2652 22 13 22H11C10.7348 22 10.4804 21.8946 10.2929 21.7071C10.1054 21.5196 10 21.2652 10 21C10 20.7348 10.1054 20.4804 10.2929 20.2929C10.4804 20.1054 10.7348 20 11 20H13ZM12 2C16.41 2 20 5.543 20 9.933C20 12.939 18.478 15.129 17.22 16.427L16.936 16.71L16.666 16.962L16.414 17.182L16.084 17.452L15.756 17.696C15.56 17.834 15.416 18.025 15.29 18.231L15.145 18.482L15.004 18.734C14.764 19.146 14.486 19.5 13.893 19.5H10.107C9.514 19.5 9.236 19.146 8.997 18.734L8.784 18.356C8.639 18.103 8.479 17.862 8.244 17.696L8.012 17.525L7.813 17.37L7.586 17.182L7.334 16.962L7.064 16.71L6.779 16.427C5.522 15.129 4 12.939 4 9.933C4 5.543 7.59 2 12 2ZM12 4C8.677 4 6 6.665 6 9.933C6 12.557 7.533 14.427 8.593 15.404L8.838 15.622L9.058 15.804L9.328 16.012L9.4 16.064C9.715 16.286 9.949 16.595 10.162 16.918L10.535 17.5H13.465L13.838 16.918C14.051 16.595 14.285 16.286 14.6 16.064L14.843 15.882L15.049 15.717L15.282 15.517C16.342 14.576 18 12.662 18 9.933C18 6.665 15.323 4 12 4ZM12.293 6.293C12.473 6.11365 12.7144 6.00953 12.9684 6.00177C13.2223 5.99402 13.4697 6.08322 13.6603 6.25125C13.8508 6.41928 13.9703 6.65355 13.9944 6.90647C14.0185 7.1594 13.9454 7.41201 13.79 7.613L13.707 7.707L12.414 9L13.7 10.286C14.064 10.65 14.092 11.223 13.784 11.619L13.7 11.714L11.707 13.707C11.527 13.8863 11.2856 13.9905 11.0316 13.9982C10.7777 14.006 10.5303 13.9168 10.3397 13.7488C10.1492 13.5807 10.0297 13.3464 10.0056 13.0935C9.98151 12.8406 10.0546 12.588 10.21 12.387L10.293 12.293L11.586 11L10.3 9.714C10.1261 9.54012 10.0217 9.30878 10.0062 9.06337C9.99074 8.81796 10.0653 8.57533 10.216 8.381L10.3 8.286L12.293 6.293Z" fill="black"/>
</g>
</g>
</svg>
