<svg width="36" height="36" viewBox="0 0 36 36" fill="none" xmlns="http://www.w3.org/2000/svg">
<g id="iconamoon:certificate-badge-light">
<g id="Group">
<path id="Vector" d="M22.5 33L21.876 33.936C22.0454 34.0489 22.2423 34.1138 22.4457 34.1236C22.6491 34.1334 22.8513 34.0879 23.0308 33.9918C23.2103 33.8957 23.3604 33.7527 23.4651 33.5781C23.5697 33.4034 23.625 33.2036 23.625 33H22.5ZM18 30L18.624 29.064C18.4392 28.9408 18.2221 28.8751 18 28.8751C17.7779 28.8751 17.5608 28.9408 17.376 29.064L18 30ZM13.5 33H12.375C12.375 33.2036 12.4303 33.4034 12.5349 33.5781C12.6396 33.7527 12.7896 33.8957 12.9692 33.9918C13.1487 34.0879 13.3509 34.1334 13.5543 34.1236C13.7577 34.1138 13.9546 34.0489 14.124 33.936L13.5 33ZM23.124 32.064L18.624 29.064L17.376 30.936L21.876 33.936L23.124 32.064ZM17.376 29.064L12.876 32.064L14.124 33.936L18.624 30.936L17.376 29.064ZM19.428 4.91398L19.491 4.98898L21.2055 3.53098L21.141 3.45598L19.428 4.91398ZM22.9635 6.42747L23.061 6.41848L22.881 4.17598L22.7835 4.18498L22.9635 6.42747ZM25.0815 8.43748L25.0725 8.53648L27.315 8.71648L27.324 8.61898L25.0815 8.43748ZM26.511 12.0075L26.586 12.072L28.044 10.359L27.969 10.2945L26.511 12.0075ZM26.586 14.928L26.511 14.991L27.969 16.7055L28.044 16.641L26.586 14.928ZM25.0725 18.4635L25.0815 18.561L27.324 18.381L27.315 18.2835L25.0725 18.4635ZM23.0625 20.5815L22.9635 20.5725L22.7835 22.815L22.881 22.824L23.0625 20.5815ZM19.4925 22.011L19.428 22.086L21.141 23.544L21.2055 23.469L19.4925 22.011ZM16.572 22.086L16.5075 22.011L14.7945 23.469L14.859 23.544L16.572 22.086ZM13.0365 20.5725L12.939 20.58L13.119 22.824L13.2165 22.8165L13.0365 20.5725ZM10.9185 18.5625L10.9275 18.4635L8.68498 18.2835L8.67598 18.381L10.9185 18.5625ZM9.48898 14.9925L9.41398 14.928L7.95598 16.641L8.03098 16.7055L9.48898 14.9925ZM9.41398 12.072L9.48898 12.0075L8.03098 10.2945L7.95598 10.359L9.41398 12.072ZM10.9275 8.53648L10.9185 8.43898L8.67598 8.61898L8.68498 8.71648L10.9275 8.53648ZM12.9375 6.41848L13.0365 6.42747L13.2165 4.18498L13.119 4.17598L12.9375 6.41848ZM16.5075 4.98898L16.572 4.91398L14.859 3.45598L14.7945 3.53098L16.5075 4.98898ZM13.0365 6.42747C13.688 6.47972 14.3426 6.3764 14.9463 6.12604C15.55 5.87568 16.0856 5.48544 16.509 4.98748L14.7945 3.53098C14.602 3.75716 14.3586 3.93441 14.0843 4.04811C13.8099 4.16181 13.5125 4.20872 13.2165 4.18498L13.0365 6.42747ZM10.9185 8.43898C10.897 8.1683 10.9345 7.89469 11.0285 7.63994C11.1224 7.3852 11.2706 7.1539 11.4627 6.96204C11.6549 6.77019 11.8864 6.62235 12.1413 6.52876C12.3962 6.43517 12.6683 6.39805 12.939 6.41998L13.119 4.17748C12.5233 4.12948 11.9244 4.21147 11.3635 4.41778C10.8027 4.62408 10.2934 4.94978 9.87084 5.37233C9.44829 5.79488 9.12259 6.3042 8.91628 6.86503C8.70997 7.42587 8.62798 8.02483 8.67598 8.62048L10.9185 8.43898ZM9.48898 12.0075C9.98646 11.5841 10.3763 11.0487 10.6264 10.4453C10.8765 9.84182 10.9797 9.18761 10.9275 8.53648L8.68498 8.71648C8.73298 9.31648 8.48998 9.90448 8.03098 10.2945L9.48898 12.0075ZM9.41398 14.928C9.20712 14.752 9.04097 14.5331 8.92703 14.2865C8.81308 14.04 8.75407 13.7716 8.75407 13.5C8.75407 13.2284 8.81308 12.96 8.92703 12.7134C9.04097 12.4669 9.20712 12.248 9.41398 12.072L7.95598 10.359C7.50109 10.7462 7.13574 11.2277 6.88519 11.77C6.63464 12.3123 6.50488 12.9026 6.50488 13.5C6.50488 14.0974 6.63464 14.6876 6.88519 15.23C7.13574 15.7723 7.50109 16.2537 7.95598 16.641L9.41398 14.928ZM10.9275 18.4635C10.9797 17.812 10.8764 17.1574 10.626 16.5537C10.3757 15.9499 9.98544 15.4143 9.48748 14.991L8.03098 16.7055C8.48998 17.0955 8.73298 17.6835 8.68498 18.2835L10.9275 18.4635ZM12.9375 20.5815C12.6667 20.6032 12.3944 20.5659 12.1395 20.472C11.8845 20.3781 11.6531 20.23 11.461 20.0378C11.269 19.8457 11.121 19.6141 11.0274 19.3591C10.9337 19.1041 10.8965 18.8317 10.9185 18.561L8.67598 18.381C8.62798 18.9766 8.70997 19.5756 8.91628 20.1364C9.12259 20.6973 9.44829 21.2066 9.87084 21.6291C10.2934 22.0517 10.8027 22.3774 11.3635 22.5837C11.9244 22.79 12.5233 22.872 13.119 22.824L12.9375 20.5815ZM19.428 22.086C19.252 22.2928 19.0331 22.459 18.7865 22.5729C18.54 22.6869 18.2716 22.7459 18 22.7459C17.7284 22.7459 17.46 22.6869 17.2134 22.5729C16.9669 22.459 16.748 22.2928 16.572 22.086L14.859 23.544C15.2462 23.9989 15.7277 24.3642 16.27 24.6148C16.8123 24.8653 17.4026 24.9951 18 24.9951C18.5974 24.9951 19.1877 24.8653 19.73 24.6148C20.2723 24.3642 20.7537 23.9989 21.141 23.544L19.428 22.086ZM25.0815 18.561C25.1032 18.8318 25.0659 19.104 24.972 19.359C24.8781 19.6139 24.73 19.8454 24.5378 20.0374C24.3457 20.2294 24.1141 20.3774 23.8591 20.4711C23.6041 20.5648 23.3318 20.6019 23.061 20.58L22.881 22.824C23.4766 22.872 24.0756 22.79 24.6364 22.5837C25.1973 22.3774 25.7066 22.0517 26.1291 21.6291C26.5517 21.2066 26.8774 20.6973 27.0837 20.1364C27.29 19.5756 27.372 18.9766 27.324 18.381L25.0815 18.561ZM26.511 14.991C26.0133 15.4145 25.6233 15.9501 25.3732 16.5539C25.1231 17.1576 25.0201 17.8121 25.0725 18.4635L27.315 18.2835C27.267 17.6835 27.51 17.0955 27.969 16.7055L26.511 14.991ZM26.586 12.072C26.7928 12.248 26.959 12.4669 27.0729 12.7134C27.1869 12.96 27.2459 13.2284 27.2459 13.5C27.2459 13.7716 27.1869 14.04 27.0729 14.2865C26.959 14.5331 26.7928 14.752 26.586 14.928L28.044 16.641C28.4989 16.2537 28.8642 15.7723 29.1148 15.23C29.3653 14.6876 29.4951 14.0974 29.4951 13.5C29.4951 12.9026 29.3653 12.3123 29.1148 11.77C28.8642 11.2277 28.4989 10.7462 28.044 10.359L26.586 12.072ZM25.0725 8.53648C25.0202 9.18797 25.1236 9.84256 25.3739 10.4463C25.6243 11.05 26.0145 11.5856 26.5125 12.009L27.969 10.2945C27.7428 10.102 27.5656 9.85862 27.4518 9.58428C27.3381 9.30993 27.2912 9.0125 27.315 8.71648L25.0725 8.53648ZM23.0625 6.41848C23.3333 6.39672 23.6056 6.43407 23.8605 6.52794C24.1154 6.62181 24.3469 6.76996 24.5389 6.96212C24.731 7.15429 24.8789 7.38589 24.9726 7.64089C25.0663 7.89589 25.1034 8.1667 25.0815 8.43748L27.324 8.61898C27.372 8.02333 27.29 7.42437 27.0837 6.86353C26.8774 6.3027 26.5517 5.79338 26.1291 5.37083C25.7066 4.94828 25.1973 4.62258 24.6364 4.41628C24.0756 4.20997 23.4766 4.12798 22.881 4.17598L23.0625 6.41848ZM19.491 4.98898C19.9143 5.48645 20.4512 5.87627 21.0547 6.12636C21.6581 6.37645 22.3124 6.47965 22.9635 6.42747L22.7835 4.18498C22.4875 4.20872 22.19 4.16181 21.9157 4.04811C21.6413 3.93441 21.3979 3.75716 21.2055 3.53098L19.491 4.98898ZM21.1425 3.45598C20.7552 3.00057 20.2736 2.63477 19.731 2.3839C19.1884 2.13304 18.5978 2.00311 18 2.00311C17.4022 2.00311 16.8115 2.13304 16.2689 2.3839C15.7263 2.63477 15.2447 3.00057 14.8575 3.45598L16.572 4.91398C16.748 4.70711 16.9669 4.54096 17.2134 4.42702C17.46 4.31308 17.7284 4.25406 18 4.25406C18.2716 4.25406 18.54 4.31308 18.7865 4.42702C19.0331 4.54096 19.252 4.70711 19.428 4.91398L21.1425 3.45598ZM16.5075 22.011C16.1403 21.5795 15.6881 21.2283 15.1792 20.9792C14.6703 20.7302 14.1155 20.5887 13.5495 20.5635L13.4505 22.812C13.9665 22.8345 14.4555 23.07 14.7945 23.469L16.5075 22.011ZM13.5495 20.5635C13.3785 20.5567 13.2072 20.5597 13.0365 20.5725L13.2165 22.815C13.2945 22.809 13.3725 22.808 13.4505 22.812L13.5495 20.5635ZM14.625 33V21.687H12.375V33H14.625ZM22.965 20.5725C22.7938 20.5597 22.622 20.5567 22.4505 20.5635L22.5495 22.812C22.6275 22.808 22.7055 22.809 22.7835 22.815L22.965 20.5725ZM22.4505 20.5635C21.8842 20.5885 21.3291 20.7299 20.82 20.9789C20.3108 21.228 19.8599 21.5793 19.4925 22.011L21.2055 23.469C21.3724 23.2731 21.5779 23.1137 21.8091 23.0006C22.0403 22.8876 22.2924 22.8234 22.5495 22.812L22.4505 20.5635ZM21.375 21.6885V33H23.625V21.687L21.375 21.6885Z" fill="black"/>
<path id="Vector_2" d="M21 12L16.5 16.5L15 15" stroke="black" stroke-width="1.5" stroke-linecap="round" stroke-linejoin="round"/>
</g>
</g>
</svg>
