<svg width="28" height="28" viewBox="0 0 28 28" fill="none" xmlns="http://www.w3.org/2000/svg">
<g id="entypo:chat">
<path id="Vector" d="M8.12 17.08V8.40002H2.8C1.26 8.40002 0 9.66002 0 11.2V19.6C0 21.14 1.26 22.4 2.8 22.4H4.2V26.6L8.4 22.4H15.4C16.94 22.4 18.2 21.14 18.2 19.6V17.052C18.1079 17.0712 18.0141 17.0811 17.92 17.0814H8.12V17.08ZM25.2 1.40002H12.6C11.06 1.40002 9.8 2.66002 9.8 4.20002V15.4H19.6L23.8 19.6V15.4H25.2C26.74 15.4 28 14.1414 28 12.6V4.20002C28 2.66002 26.74 1.40002 25.2 1.40002Z" fill="#707070"/>
</g>
</svg>
