<svg width="22" height="22" viewBox="0 0 22 22" fill="none" xmlns="http://www.w3.org/2000/svg">
<mask id="mask0_337_1309" style="mask-type:luminance" maskUnits="userSpaceOnUse" x="0" y="0" width="22" height="22">
<path d="M11 21C12.3135 21.0016 13.6143 20.7437 14.8278 20.2411C16.0412 19.7384 17.1434 19.0009 18.071 18.071C19.0009 17.1434 19.7384 16.0412 20.2411 14.8278C20.7437 13.6143 21.0016 12.3135 21 11C21.0016 9.68655 20.7437 8.38572 20.2411 7.17225C19.7384 5.95878 19.0009 4.85659 18.071 3.92901C17.1434 2.99909 16.0412 2.26162 14.8278 1.75897C13.6143 1.25631 12.3135 0.998388 11 1.00001C9.68655 0.998388 8.38572 1.25631 7.17225 1.75897C5.95878 2.26162 4.85659 2.99909 3.92901 3.92901C2.99909 4.85659 2.26162 5.95878 1.75897 7.17225C1.25631 8.38572 0.998388 9.68655 1.00001 11C0.998388 12.3135 1.25631 13.6143 1.75897 14.8278C2.26162 16.0412 2.99909 17.1434 3.92901 18.071C4.85659 19.0009 5.95878 19.7384 7.17225 20.2411C8.38572 20.7437 9.68655 21.0016 11 21Z" fill="white" stroke="white" stroke-width="2" stroke-linejoin="round"/>
<path d="M7 11L10 14L16 8" stroke="black" stroke-width="2" stroke-linecap="round" stroke-linejoin="round"/>
</mask>
<g mask="url(#mask0_337_1309)">
<path d="M-1 -1H23V23H-1V-1Z" fill="#00C517"/>
</g>
</svg>
