<svg width="29" height="28" viewBox="0 0 29 28" fill="none" xmlns="http://www.w3.org/2000/svg">
<g id="mage:home-2">
<path id="Vector" d="M23.4055 8.295L15.8525 3.605C15.4392 3.34699 14.9618 3.2102 14.4746 3.2102C13.9875 3.2102 13.5101 3.34699 13.0968 3.605L5.54497 8.32183C5.11558 8.59261 4.77478 8.9831 4.56458 9.44517C4.35438 9.90725 4.28395 10.4207 4.36197 10.9223L6.3103 22.6205C6.41328 23.2329 6.73192 23.7883 7.20863 24.1862C7.68535 24.5842 8.28869 24.7985 8.90964 24.7905H20.0886C20.7098 24.7988 21.3134 24.5846 21.7904 24.1866C22.2673 23.7886 22.5861 23.2331 22.6891 22.6205L24.6375 10.9223C24.7158 10.4115 24.6403 9.8889 24.4204 9.42118C24.2006 8.95346 23.8464 8.56181 23.4031 8.29617M10.5756 19.2022H18.3748" stroke="#003B8F" stroke-width="1.5" stroke-linecap="round" stroke-linejoin="round"/>
</g>
</svg>
