<svg width="28" height="28" viewBox="0 0 28 28" fill="none" xmlns="http://www.w3.org/2000/svg">
<g id="hugeicons:mentoring">
<path id="Vector" d="M13.9997 25.6667L11.6663 18.6667H2.33301L4.66634 25.6667H13.9997ZM13.9997 25.6667H18.6663M13.9997 15.1667V14.5833C13.9997 12.383 13.9997 11.284 13.316 10.6003C12.6323 9.91668 11.5333 9.91668 9.33301 9.91668C7.13267 9.91668 6.03367 9.91668 5.35001 10.6003C4.66634 11.284 4.66634 12.383 4.66634 14.5833V15.1667M16.333 20.4167H23.333C23.9518 20.4167 24.5453 20.6625 24.9829 21.1001C25.4205 21.5377 25.6663 22.1312 25.6663 22.75V23.3333C25.6663 23.9522 25.4205 24.5457 24.9829 24.9833C24.5453 25.4208 23.9518 25.6667 23.333 25.6667H22.1663M22.1663 15.1667C22.1663 15.7855 21.9205 16.379 21.4829 16.8166C21.0453 17.2542 20.4518 17.5 19.833 17.5C19.2142 17.5 18.6207 17.2542 18.1831 16.8166C17.7455 16.379 17.4997 15.7855 17.4997 15.1667C17.4997 14.5478 17.7455 13.9543 18.1831 13.5168C18.6207 13.0792 19.2142 12.8333 19.833 12.8333C20.4518 12.8333 21.0453 13.0792 21.4829 13.5168C21.9205 13.9543 22.1663 14.5478 22.1663 15.1667ZM11.6663 4.66668C11.6663 5.28552 11.4205 5.87901 10.9829 6.31659C10.5453 6.75418 9.95185 7.00001 9.33301 7.00001C8.71417 7.00001 8.12068 6.75418 7.68309 6.31659C7.24551 5.87901 6.99967 5.28552 6.99967 4.66668C6.99967 4.04784 7.24551 3.45435 7.68309 3.01676C8.12068 2.57918 8.71417 2.33334 9.33301 2.33334C9.95185 2.33334 10.5453 2.57918 10.9829 3.01676C11.4205 3.45435 11.6663 4.04784 11.6663 4.66668Z" stroke="#707070" stroke-width="1.5" stroke-linecap="round" stroke-linejoin="round"/>
</g>
</svg>
