<svg width="29" height="28" viewBox="0 0 29 28" fill="none" xmlns="http://www.w3.org/2000/svg">
<g id="icon-park-twotone:more-app">
<g id="Mask group">
<mask id="mask0_335_1170" style="mask-type:luminance" maskUnits="userSpaceOnUse" x="2" y="1" width="25" height="26">
<g id="Group">
<g id="Group_2">
<path id="Vector" d="M10.9997 2.33331H3.99967C3.69026 2.33331 3.39351 2.45623 3.17472 2.67502C2.95592 2.89381 2.83301 3.19056 2.83301 3.49998V10.5C2.83301 10.8094 2.95592 11.1061 3.17472 11.3249C3.39351 11.5437 3.69026 11.6666 3.99967 11.6666H10.9997C11.3091 11.6666 11.6058 11.5437 11.8246 11.3249C12.0434 11.1061 12.1663 10.8094 12.1663 10.5V3.49998C12.1663 3.19056 12.0434 2.89381 11.8246 2.67502C11.6058 2.45623 11.3091 2.33331 10.9997 2.33331ZM10.9997 16.3333H3.99967C3.69026 16.3333 3.39351 16.4562 3.17472 16.675C2.95592 16.8938 2.83301 17.1906 2.83301 17.5V24.5C2.83301 24.8094 2.95592 25.1061 3.17472 25.3249C3.39351 25.5437 3.69026 25.6666 3.99967 25.6666H10.9997C11.3091 25.6666 11.6058 25.5437 11.8246 25.3249C12.0434 25.1061 12.1663 24.8094 12.1663 24.5V17.5C12.1663 17.1906 12.0434 16.8938 11.8246 16.675C11.6058 16.4562 11.3091 16.3333 10.9997 16.3333ZM24.9997 2.33331H17.9997C17.6903 2.33331 17.3935 2.45623 17.1747 2.67502C16.9559 2.89381 16.833 3.19056 16.833 3.49998V10.5C16.833 10.8094 16.9559 11.1061 17.1747 11.3249C17.3935 11.5437 17.6903 11.6666 17.9997 11.6666H24.9997C25.3091 11.6666 25.6058 11.5437 25.8246 11.3249C26.0434 11.1061 26.1663 10.8094 26.1663 10.5V3.49998C26.1663 3.19056 26.0434 2.89381 25.8246 2.67502C25.6058 2.45623 25.3091 2.33331 24.9997 2.33331Z" fill="#555555" stroke="white" stroke-linejoin="round"/>
<path id="Vector_2" d="M16.833 16.3333H26.1663M21.4997 21H26.1663M16.833 25.6666H26.1663" stroke="white" stroke-linecap="round" stroke-linejoin="round"/>
</g>
</g>
</mask>
<g mask="url(#mask0_335_1170)">
<path id="Vector_3" d="M0.5 0H28.5V28H0.5V0Z" fill="#707070"/>
</g>
</g>
</g>
</svg>
