<svg width="16" height="17" viewBox="0 0 16 17" fill="none" xmlns="http://www.w3.org/2000/svg">
<g id="ph:star-fill">
<path id="Vector" d="M13.8015 8.0719L13.8047 8.07136L11.6673 9.91574L11.5524 10.0148L11.5873 10.1625L12.4441 13.7918L12.4444 13.7927C12.4801 13.9417 12.4709 14.0979 12.4179 14.2417C12.3649 14.3854 12.2705 14.5102 12.1466 14.6003C12.0227 14.6904 11.8749 14.7418 11.7218 14.7479C11.5689 14.7541 11.4176 14.7148 11.287 14.6351C11.2869 14.635 11.2867 14.6349 11.2866 14.6348L8.13099 12.6927L8 12.6121L7.86898 12.6927L4.71199 14.6345C4.71185 14.6346 4.7117 14.6347 4.71156 14.6348C4.58096 14.714 4.42985 14.7529 4.27721 14.7466C4.1244 14.7402 3.97689 14.6887 3.85326 14.5987C3.72962 14.5087 3.6354 14.3841 3.58243 14.2406C3.52947 14.0971 3.52015 13.9412 3.55564 13.7924L3.55573 13.792L4.41573 10.1627L4.45073 10.0149L4.33579 9.91574L1.52343 7.489C1.40766 7.38894 1.32393 7.25699 1.2827 7.10963C1.24148 6.96227 1.24458 6.80603 1.29161 6.66042C1.33865 6.5148 1.42755 6.38628 1.5472 6.29089C1.66663 6.19568 1.81141 6.13769 1.96354 6.12413C1.96382 6.12411 1.9641 6.12408 1.96438 6.12406L5.65007 5.82671L5.80258 5.81441L5.86101 5.67299L7.28351 2.2305L7.28374 2.22994C7.34191 2.0882 7.44092 1.96695 7.56817 1.88162C7.69543 1.79629 7.84518 1.75073 7.9984 1.75073C8.15161 1.75073 8.30137 1.79629 8.42862 1.88162C8.55588 1.96695 8.65488 2.0882 8.71305 2.22994L8.71327 2.23046L10.1351 5.67296L10.1936 5.8144L10.3461 5.82671L14.0326 6.12413C14.0328 6.12414 14.0329 6.12416 14.0331 6.12417C14.1857 6.13716 14.331 6.19484 14.451 6.29001C14.5711 6.38527 14.6604 6.51384 14.7077 6.65963C14.755 6.80542 14.7583 6.96193 14.7171 7.10956C14.6758 7.25719 14.592 7.38937 14.476 7.48955L13.8015 8.0719Z" fill="#FFA902" stroke="black" stroke-width="0.5"/>
</g>
</svg>
