<svg width="24" height="24" viewBox="0 0 24 24" fill="none" xmlns="http://www.w3.org/2000/svg">
<g id="ph:crown-fill" clip-path="url(#clip0_526_127)">
<path id="Vector" d="M22.8599 7.14291C22.6907 6.99539 22.4815 6.90148 22.2589 6.8731C22.0362 6.84472 21.8101 6.88316 21.6093 6.98353L16.9021 9.32728L12.9721 2.79947C12.8711 2.63196 12.7285 2.4934 12.5582 2.39721C12.3878 2.30103 12.1955 2.25049 11.9999 2.25049C11.8043 2.25049 11.612 2.30103 11.4417 2.39721C11.2714 2.4934 11.1288 2.63196 11.0277 2.79947L7.09775 9.33009L2.39244 6.98634C2.19213 6.88686 1.96691 6.84876 1.74502 6.87682C1.52314 6.90488 1.31449 6.99784 1.14525 7.14405C0.976015 7.29025 0.853728 7.48319 0.793739 7.69864C0.733751 7.91409 0.738733 8.14246 0.80806 8.35509L4.27681 18.9826C4.31169 19.0894 4.3701 19.1869 4.44773 19.2681C4.52536 19.3493 4.62023 19.412 4.72534 19.4516C4.83045 19.4912 4.94311 19.5066 5.055 19.4969C5.16689 19.4871 5.27516 19.4523 5.37181 19.3951C5.39525 19.381 7.79244 18.0001 11.9999 18.0001C16.2074 18.0001 18.6046 19.381 18.6262 19.3942C18.7229 19.4519 18.8313 19.4872 18.9435 19.4973C19.0557 19.5074 19.1687 19.4921 19.2741 19.4526C19.3796 19.4131 19.4748 19.3503 19.5527 19.2689C19.6306 19.1875 19.6891 19.0897 19.724 18.9826L23.1927 8.35791C23.2641 8.14522 23.2705 7.91612 23.2112 7.69976C23.152 7.4834 23.0297 7.28956 22.8599 7.14291ZM16.4849 14.7001C16.4543 14.8736 16.3636 15.0308 16.2287 15.1441C16.0938 15.2574 15.9233 15.3196 15.7471 15.3198C15.7031 15.3197 15.6592 15.316 15.6159 15.3085C13.2203 14.8973 10.7721 14.8973 8.3765 15.3085C8.27948 15.3256 8.18005 15.3235 8.08387 15.3022C7.98769 15.2809 7.89666 15.2408 7.81596 15.1843C7.65298 15.0702 7.542 14.896 7.50744 14.7001C7.47288 14.5042 7.51756 14.3025 7.63167 14.1396C7.74577 13.9766 7.91995 13.8656 8.11587 13.831C10.6839 13.3898 13.3084 13.3898 15.8765 13.831C15.9739 13.8477 16.067 13.8834 16.1505 13.9362C16.234 13.9889 16.3063 14.0576 16.3632 14.1384C16.42 14.2191 16.4604 14.3103 16.4819 14.4067C16.5035 14.5031 16.5058 14.6028 16.4887 14.7001L16.4849 14.7001Z" fill="white"/>
</g>
<defs>
<clipPath id="clip0_526_127">
<rect width="24" height="24" fill="white"/>
</clipPath>
</defs>
</svg>
