<svg width="24" height="24" viewBox="0 0 24 24" fill="none" xmlns="http://www.w3.org/2000/svg">
<g id="ph:crown-fill" clip-path="url(#clip0_7_705)">
<path id="Vector" d="M22.8601 7.14291C22.6909 6.99539 22.4816 6.90148 22.259 6.8731C22.0363 6.84472 21.8102 6.88316 21.6094 6.98353L16.9022 9.32728L12.9722 2.79947C12.8712 2.63196 12.7286 2.4934 12.5583 2.39721C12.388 2.30103 12.1957 2.25049 12.0001 2.25049C11.8044 2.25049 11.6122 2.30103 11.4418 2.39721C11.2715 2.4934 11.1289 2.63196 11.0279 2.79947L7.09787 9.33009L2.39256 6.98634C2.19225 6.88686 1.96703 6.84876 1.74515 6.87682C1.52327 6.90488 1.31461 6.99784 1.14538 7.14405C0.976137 7.29025 0.85385 7.48319 0.793862 7.69864C0.733873 7.91409 0.738855 8.14246 0.808182 8.35509L4.27693 18.9826C4.31181 19.0894 4.37022 19.1869 4.44785 19.2681C4.52548 19.3493 4.62036 19.412 4.72546 19.4516C4.83057 19.4912 4.94323 19.5066 5.05512 19.4969C5.16701 19.4871 5.27528 19.4523 5.37193 19.3951C5.39537 19.381 7.79256 18.0001 12.0001 18.0001C16.2076 18.0001 18.6047 19.381 18.6263 19.3942C18.723 19.4519 18.8314 19.4872 18.9436 19.4973C19.0558 19.5074 19.1688 19.4921 19.2743 19.4526C19.3797 19.4131 19.4749 19.3503 19.5528 19.2689C19.6307 19.1875 19.6892 19.0897 19.7241 18.9826L23.1929 8.35791C23.2642 8.14522 23.2706 7.91612 23.2114 7.69976C23.1521 7.4834 23.0298 7.28956 22.8601 7.14291ZM16.4851 14.7001C16.4544 14.8736 16.3637 15.0308 16.2288 15.1441C16.0939 15.2574 15.9234 15.3196 15.7472 15.3198C15.7033 15.3197 15.6594 15.316 15.616 15.3085C13.2204 14.8973 10.7722 14.8973 8.37662 15.3085C8.27961 15.3256 8.18017 15.3235 8.08399 15.3022C7.98782 15.2809 7.89678 15.2408 7.81608 15.1843C7.6531 15.0702 7.54212 14.896 7.50756 14.7001C7.473 14.5042 7.51768 14.3025 7.63179 14.1396C7.74589 13.9766 7.92007 13.8656 8.116 13.831C10.6841 13.3898 13.3086 13.3898 15.8766 13.831C15.974 13.8477 16.0671 13.8834 16.1506 13.9362C16.2341 13.9889 16.3064 14.0576 16.3633 14.1384C16.4202 14.2191 16.4605 14.3103 16.4821 14.4067C16.5036 14.5031 16.5059 14.6028 16.4888 14.7001L16.4851 14.7001Z" fill="black"/>
</g>
<defs>
<clipPath id="clip0_7_705">
<rect width="24" height="24" fill="white"/>
</clipPath>
</defs>
</svg>
